PathFileType	4	(X/Y/Z)	H:\MAC\Pilotos\Biomecanica2_gait_2020\Trimmed_walk1.trc
DataRate	CameraRate	NumFrames	NumMarkers	Units	OrigDataRate	OrigDataStartFrame	OrigNumFrames
150.00	150.00	       5	28	mm	150.00	274	       364
Frame#	Time	R.ASIS			L.ASIS			R.PSIS			L.PSIS			L.Iliac.Crest			R.Iliac.Crest			R.GTR			R.Knee			R.HF			R.TT			R.Ankle			R.Heel			R.MT1			R.MT5			L.GTR			L.Knee			L.HF			L.TT			L.Ankle			L.Heel			L.MT1			L.MT5			R.Knee.Medial			R.Ankle.Medial			R.MT2			L.Knee.Medial			L.Ankle.Medial			L.MT2			
		X1	Y1	Z1	X2	Y2	Z2	X3	Y3	Z3	X4	Y4	Z4	X5	Y5	Z5	X6	Y6	Z6	X7	Y7	Z7	X8	Y8	Z8	X9	Y9	Z9	X10	Y10	Z10	X11	Y11	Z11	X12	Y12	Z12	X13	Y13	Z13	X14	Y14	Z14	X15	Y15	Z15	X16	Y16	Z16	X17	Y17	Z17	X18	Y18	Z18	X19	Y19	Z19	X20	Y20	Z20	X21	Y21	Z21	X22	Y22	Z22	X23	Y23	Z23	X24	Y24	Z24	X25	Y25	Z25	X26	Y26	Z26	X27	Y27	Z27	X28	Y28	Z28	

274	1.820	1991.27148	1019.72968	-415.21738	1952.67896	1021.55487	-187.90984	1792.69080	1054.98682	-374.86978	1777.76453	1058.58008	-278.02637	1868.83838	1085.24963	-158.80452	1909.65137	1079.87183	-477.89319	1914.64099	944.21136	-501.90280	2041.19592	530.21222	-440.41275	2058.10205	468.06644	-442.19565	2132.62939	471.36899	-393.18066	2201.61963	88.68647	-413.68713	2160.26318	48.37982	-360.23257	2367.14673	115.32473	-353.27927	2331.82324	82.75965	-424.24915	1851.01038	935.88861	-142.19812	1729.17383	541.56915	-211.29582	1699.75208	485.87567	-215.00969	1762.64990	436.56104	-256.26373	1569.43958	110.34907	-266.18347	1515.14966	93.87289	-325.04572	1728.44653	46.39263	-328.61969	1678.86340	34.81462	-250.92450	2045.85510	524.37103	-301.57596	2215.44897	119.12457	-325.61813	2365.51050	104.05199	-381.50836	1773.23743	526.80353	-332.23532	1615.60156	122.86465	-351.15881	1728.33118	36.43062	-293.11414	
275	1.827	2000.17529	1019.11945	-415.37524	1961.17920	1020.93793	-188.06065	1801.52161	1054.20276	-375.49130	1786.41833	1057.78259	-278.71701	1877.10059	1084.67334	-159.16447	1918.44800	1079.02698	-478.24258	1923.92285	943.56519	-502.21115	2050.03687	529.88354	-439.80750	2067.06152	467.58459	-441.55432	2141.23608	470.65399	-391.80600	2209.52661	87.78969	-412.28561	2166.64233	47.61763	-358.90369	2374.12451	114.27936	-350.18970	2339.44531	81.98378	-421.70801	1859.12891	935.57214	-142.43980	1735.97534	541.84491	-210.55457	1706.04529	486.38486	-214.32564	1768.40002	436.25848	-255.60503	1571.44873	112.42181	-265.37225	1516.32874	96.96531	-323.94489	1728.54358	46.33994	-328.50916	1679.03357	34.79923	-250.82162	2054.45801	524.32623	-301.30734	2222.36157	117.96185	-323.45135	2373.01660	103.15784	-378.50073	1780.04468	526.45166	-331.79367	1616.99402	124.49996	-350.25928	1728.38135	36.38061	-293.02603	
276	1.833	2009.33203	1018.65222	-415.63379	1969.76733	1020.35754	-188.25662	1810.41785	1053.41980	-375.93488	1795.14856	1057.07507	-279.26645	1885.52466	1084.13025	-159.34871	1927.20276	1078.28735	-478.58054	1933.23511	943.14484	-502.45636	2059.32129	529.61249	-439.31281	2076.29370	467.16544	-441.12970	2149.74512	469.75912	-390.37280	2216.24707	86.48588	-410.99814	2173.04077	46.01314	-358.21545	2380.06177	112.20361	-347.01859	2346.17383	80.41526	-419.06812	1867.41724	935.23987	-142.73726	1742.97949	541.83173	-210.15504	1712.60815	486.79950	-213.58458	1774.38916	435.91364	-254.91325	1573.03687	114.62489	-264.33038	1517.64978	100.25471	-322.78934	1728.61963	46.32760	-328.30884	1679.24670	34.78720	-250.74646	2063.00269	524.10785	-301.08759	2228.12061	116.32600	-321.91522	2379.20508	101.26682	-375.53445	1787.33093	526.08228	-331.31711	1618.51355	126.20679	-349.30386	1728.44214	36.32455	-292.94687	
277	1.840	2018.39380	1018.33051	-415.89218	1978.45337	1019.80493	-188.51385	1819.34680	1052.66711	-376.22211	1804.01147	1056.45093	-279.69879	1894.36633	1083.55713	-159.82407	1935.97253	1077.65308	-478.83444	1942.67432	942.83612	-502.71500	2068.87939	529.43463	-438.87039	2085.62158	466.75418	-440.58215	2158.42578	468.73251	-388.92221	2221.64307	84.68331	-409.76999	2177.74854	43.83473	-358.13754	2384.73633	109.38190	-343.89551	2351.30493	78.12464	-416.42184	1875.77917	934.84406	-142.95110	1750.26965	541.95514	-209.54236	1719.53308	487.20734	-212.69815	1780.70044	435.50336	-254.21898	1574.80762	116.95280	-263.26138	1519.12915	103.67603	-321.60519	1728.71558	46.31833	-328.11346	1679.54895	34.77322	-250.69354	2071.88745	524.33752	-300.50192	2232.67798	114.19060	-320.40280	2384.03003	98.42059	-372.25034	1794.67151	525.63220	-330.83862	1620.17090	128.00325	-348.33115	1728.58630	36.34982	-292.79651	
278	1.847	2027.94507	1018.11292	-416.13815	1987.31030	1019.29913	-188.75697	1828.47375	1051.98315	-376.46011	1813.13245	1055.78320	-279.99741	1903.27869	1083.02747	-160.23090	1944.80261	1077.09741	-479.06964	1951.97229	942.57648	-502.89581	2078.77051	529.25220	-438.52570	2094.98462	466.35730	-440.16162	2167.01416	467.63248	-387.52527	2226.01465	82.48073	-408.54504	2180.99854	41.70904	-357.66888	2388.28076	105.71248	-340.74823	2355.70581	75.45133	-414.38907	1884.37805	934.47290	-143.16971	1757.88867	542.07184	-208.67180	1726.71619	487.52048	-211.82266	1786.59680	435.15836	-253.20766	1576.73608	119.31615	-262.14731	1520.79492	107.28915	-320.46439	1728.83350	46.30788	-327.96667	1679.78662	34.57424	-250.94649	2080.15063	523.71283	-300.35355	2236.07813	111.56629	-318.98105	2387.90088	95.34989	-369.42139	1802.31250	525.05591	-330.20111	1621.98755	129.91039	-347.30377	1728.68713	36.32914	-292.72934	
